<mxfile host="app.diagrams.net" modified="2023-10-10T00:22:06.099Z" agent="Mozilla/5.0 (Windows NT 10.0; Win64; x64) AppleWebKit/537.36 (KHTML, like Gecko) Chrome/117.0.0.0 Safari/537.36" etag="8zCIwuNEjel-lipVNGqF" version="21.8.2" type="device">
  <diagram name="Сторінка-1" id="DtP_SP_mq3mXrDyE6oLa">
    <mxGraphModel dx="1500" dy="774" grid="1" gridSize="10" guides="1" tooltips="1" connect="1" arrows="1" fold="1" page="1" pageScale="1" pageWidth="827" pageHeight="1169" math="0" shadow="0">
      <root>
        <mxCell id="0" />
        <mxCell id="1" parent="0" />
        <mxCell id="b0JPKcSVCmFwQfkPYjr2-2" value="" style="rounded=0;whiteSpace=wrap;html=1;fillColor=#dae8fc;strokeColor=#6c8ebf;" vertex="1" parent="1">
          <mxGeometry width="820" height="780" as="geometry" />
        </mxCell>
        <mxCell id="b0JPKcSVCmFwQfkPYjr2-3" value="&lt;font style=&quot;font-size: 40px;&quot;&gt;User&lt;/font&gt;" style="rounded=0;whiteSpace=wrap;html=1;" vertex="1" parent="1">
          <mxGeometry x="290" y="120" width="185" height="70" as="geometry" />
        </mxCell>
        <mxCell id="b0JPKcSVCmFwQfkPYjr2-4" value="&lt;font style=&quot;font-size: 40px;&quot;&gt;Dialog&lt;/font&gt;" style="rounded=0;whiteSpace=wrap;html=1;" vertex="1" parent="1">
          <mxGeometry x="290" y="280" width="185" height="70" as="geometry" />
        </mxCell>
        <mxCell id="b0JPKcSVCmFwQfkPYjr2-5" value="&lt;font style=&quot;font-size: 40px;&quot;&gt;Message&lt;/font&gt;" style="rounded=0;whiteSpace=wrap;html=1;" vertex="1" parent="1">
          <mxGeometry x="290" y="440" width="185" height="70" as="geometry" />
        </mxCell>
        <mxCell id="b0JPKcSVCmFwQfkPYjr2-6" value="&lt;font style=&quot;font-size: 25px;&quot;&gt;ID&lt;/font&gt;" style="ellipse;whiteSpace=wrap;html=1;" vertex="1" parent="1">
          <mxGeometry x="120" y="30" width="90" height="60" as="geometry" />
        </mxCell>
        <mxCell id="b0JPKcSVCmFwQfkPYjr2-7" value="&lt;font style=&quot;font-size: 25px;&quot;&gt;Username&lt;/font&gt;" style="ellipse;whiteSpace=wrap;html=1;" vertex="1" parent="1">
          <mxGeometry x="50" y="125" width="170" height="60" as="geometry" />
        </mxCell>
        <mxCell id="b0JPKcSVCmFwQfkPYjr2-8" value="" style="endArrow=none;html=1;rounded=0;entryX=0;entryY=0.5;entryDx=0;entryDy=0;exitX=1;exitY=1;exitDx=0;exitDy=0;" edge="1" parent="1" source="b0JPKcSVCmFwQfkPYjr2-6" target="b0JPKcSVCmFwQfkPYjr2-3">
          <mxGeometry width="50" height="50" relative="1" as="geometry">
            <mxPoint x="330" y="370" as="sourcePoint" />
            <mxPoint x="380" y="320" as="targetPoint" />
          </mxGeometry>
        </mxCell>
        <mxCell id="b0JPKcSVCmFwQfkPYjr2-9" value="" style="endArrow=none;html=1;rounded=0;entryX=0;entryY=0.5;entryDx=0;entryDy=0;exitX=1;exitY=0.5;exitDx=0;exitDy=0;" edge="1" parent="1" source="b0JPKcSVCmFwQfkPYjr2-7" target="b0JPKcSVCmFwQfkPYjr2-3">
          <mxGeometry width="50" height="50" relative="1" as="geometry">
            <mxPoint x="230" y="220" as="sourcePoint" />
            <mxPoint x="280" y="170" as="targetPoint" />
          </mxGeometry>
        </mxCell>
        <mxCell id="b0JPKcSVCmFwQfkPYjr2-11" value="&lt;font style=&quot;font-size: 25px;&quot;&gt;ID&lt;/font&gt;" style="ellipse;whiteSpace=wrap;html=1;" vertex="1" parent="1">
          <mxGeometry x="100" y="230" width="90" height="60" as="geometry" />
        </mxCell>
        <mxCell id="b0JPKcSVCmFwQfkPYjr2-13" value="&lt;font style=&quot;font-size: 25px;&quot;&gt;User id&lt;/font&gt;" style="ellipse;whiteSpace=wrap;html=1;" vertex="1" parent="1">
          <mxGeometry x="60" y="320" width="170" height="60" as="geometry" />
        </mxCell>
        <mxCell id="b0JPKcSVCmFwQfkPYjr2-14" value="" style="endArrow=none;html=1;rounded=0;entryX=0;entryY=0.5;entryDx=0;entryDy=0;exitX=1;exitY=0.5;exitDx=0;exitDy=0;" edge="1" parent="1" source="b0JPKcSVCmFwQfkPYjr2-11" target="b0JPKcSVCmFwQfkPYjr2-4">
          <mxGeometry width="50" height="50" relative="1" as="geometry">
            <mxPoint x="330" y="370" as="sourcePoint" />
            <mxPoint x="380" y="320" as="targetPoint" />
          </mxGeometry>
        </mxCell>
        <mxCell id="b0JPKcSVCmFwQfkPYjr2-15" value="" style="endArrow=none;html=1;rounded=0;entryX=0;entryY=0.5;entryDx=0;entryDy=0;exitX=1;exitY=0.5;exitDx=0;exitDy=0;" edge="1" parent="1" source="b0JPKcSVCmFwQfkPYjr2-13" target="b0JPKcSVCmFwQfkPYjr2-4">
          <mxGeometry width="50" height="50" relative="1" as="geometry">
            <mxPoint x="130" y="290" as="sourcePoint" />
            <mxPoint x="180" y="240" as="targetPoint" />
          </mxGeometry>
        </mxCell>
        <mxCell id="b0JPKcSVCmFwQfkPYjr2-16" value="&lt;font style=&quot;font-size: 25px;&quot;&gt;ID&lt;/font&gt;" style="ellipse;whiteSpace=wrap;html=1;" vertex="1" parent="1">
          <mxGeometry x="570" y="370" width="90" height="60" as="geometry" />
        </mxCell>
        <mxCell id="b0JPKcSVCmFwQfkPYjr2-30" value="&lt;font style=&quot;font-size: 25px;&quot;&gt;Dialog id&lt;/font&gt;" style="ellipse;whiteSpace=wrap;html=1;" vertex="1" parent="1">
          <mxGeometry x="530" y="445" width="170" height="60" as="geometry" />
        </mxCell>
        <mxCell id="b0JPKcSVCmFwQfkPYjr2-32" value="&lt;font style=&quot;font-size: 25px;&quot;&gt;Time&lt;/font&gt;" style="ellipse;whiteSpace=wrap;html=1;" vertex="1" parent="1">
          <mxGeometry x="530" y="524.5" width="170" height="60" as="geometry" />
        </mxCell>
        <mxCell id="b0JPKcSVCmFwQfkPYjr2-35" value="&lt;font style=&quot;font-size: 25px;&quot;&gt;Recipient id&lt;/font&gt;" style="ellipse;whiteSpace=wrap;html=1;" vertex="1" parent="1">
          <mxGeometry x="60" y="530" width="170" height="60" as="geometry" />
        </mxCell>
        <mxCell id="b0JPKcSVCmFwQfkPYjr2-36" value="" style="endArrow=none;html=1;rounded=0;entryX=0;entryY=0.5;entryDx=0;entryDy=0;exitX=1;exitY=0.5;exitDx=0;exitDy=0;" edge="1" parent="1" source="b0JPKcSVCmFwQfkPYjr2-5" target="b0JPKcSVCmFwQfkPYjr2-16">
          <mxGeometry width="50" height="50" relative="1" as="geometry">
            <mxPoint x="540" y="350" as="sourcePoint" />
            <mxPoint x="590" y="300" as="targetPoint" />
          </mxGeometry>
        </mxCell>
        <mxCell id="b0JPKcSVCmFwQfkPYjr2-37" value="" style="endArrow=none;html=1;rounded=0;entryX=0;entryY=0.5;entryDx=0;entryDy=0;exitX=1;exitY=0.5;exitDx=0;exitDy=0;" edge="1" parent="1" source="b0JPKcSVCmFwQfkPYjr2-5" target="b0JPKcSVCmFwQfkPYjr2-30">
          <mxGeometry width="50" height="50" relative="1" as="geometry">
            <mxPoint x="530" y="370" as="sourcePoint" />
            <mxPoint x="580" y="320" as="targetPoint" />
          </mxGeometry>
        </mxCell>
        <mxCell id="b0JPKcSVCmFwQfkPYjr2-38" value="" style="endArrow=none;html=1;rounded=0;entryX=0;entryY=0;entryDx=0;entryDy=0;exitX=1;exitY=0.5;exitDx=0;exitDy=0;" edge="1" parent="1" source="b0JPKcSVCmFwQfkPYjr2-5" target="b0JPKcSVCmFwQfkPYjr2-32">
          <mxGeometry width="50" height="50" relative="1" as="geometry">
            <mxPoint x="470" y="590" as="sourcePoint" />
            <mxPoint x="520" y="540" as="targetPoint" />
          </mxGeometry>
        </mxCell>
        <mxCell id="b0JPKcSVCmFwQfkPYjr2-39" value="" style="endArrow=none;html=1;rounded=0;entryX=1;entryY=0;entryDx=0;entryDy=0;exitX=0;exitY=0.5;exitDx=0;exitDy=0;" edge="1" parent="1" source="b0JPKcSVCmFwQfkPYjr2-5" target="b0JPKcSVCmFwQfkPYjr2-35">
          <mxGeometry width="50" height="50" relative="1" as="geometry">
            <mxPoint x="380" y="580" as="sourcePoint" />
            <mxPoint x="530" y="630" as="targetPoint" />
          </mxGeometry>
        </mxCell>
        <mxCell id="b0JPKcSVCmFwQfkPYjr2-40" value="" style="endArrow=none;html=1;rounded=0;entryX=0.5;entryY=1;entryDx=0;entryDy=0;exitX=0.5;exitY=0;exitDx=0;exitDy=0;" edge="1" parent="1" source="b0JPKcSVCmFwQfkPYjr2-4" target="b0JPKcSVCmFwQfkPYjr2-3">
          <mxGeometry width="50" height="50" relative="1" as="geometry">
            <mxPoint x="600" y="280" as="sourcePoint" />
            <mxPoint x="650" y="230" as="targetPoint" />
          </mxGeometry>
        </mxCell>
        <mxCell id="b0JPKcSVCmFwQfkPYjr2-41" value="" style="endArrow=none;html=1;rounded=0;entryX=0.5;entryY=1;entryDx=0;entryDy=0;exitX=0.5;exitY=0;exitDx=0;exitDy=0;" edge="1" parent="1" source="b0JPKcSVCmFwQfkPYjr2-5" target="b0JPKcSVCmFwQfkPYjr2-4">
          <mxGeometry width="50" height="50" relative="1" as="geometry">
            <mxPoint x="393" y="290" as="sourcePoint" />
            <mxPoint x="393" y="200" as="targetPoint" />
          </mxGeometry>
        </mxCell>
        <mxCell id="b0JPKcSVCmFwQfkPYjr2-43" value="" style="endArrow=none;html=1;rounded=0;entryX=0.5;entryY=1;entryDx=0;entryDy=0;exitX=1;exitY=0.5;exitDx=0;exitDy=0;" edge="1" parent="1" source="b0JPKcSVCmFwQfkPYjr2-3" target="b0JPKcSVCmFwQfkPYjr2-5">
          <mxGeometry width="50" height="50" relative="1" as="geometry">
            <mxPoint x="360" y="630" as="sourcePoint" />
            <mxPoint x="410" y="580" as="targetPoint" />
            <Array as="points">
              <mxPoint x="780" y="150" />
              <mxPoint x="780" y="740" />
              <mxPoint x="380" y="740" />
            </Array>
          </mxGeometry>
        </mxCell>
        <mxCell id="b0JPKcSVCmFwQfkPYjr2-44" value="&lt;font style=&quot;font-size: 25px;&quot;&gt;Sender id&lt;/font&gt;" style="ellipse;whiteSpace=wrap;html=1;" vertex="1" parent="1">
          <mxGeometry x="60" y="445" width="170" height="60" as="geometry" />
        </mxCell>
        <mxCell id="b0JPKcSVCmFwQfkPYjr2-45" value="" style="endArrow=none;html=1;rounded=0;entryX=0;entryY=0.5;entryDx=0;entryDy=0;exitX=1;exitY=0.5;exitDx=0;exitDy=0;" edge="1" parent="1" source="b0JPKcSVCmFwQfkPYjr2-44" target="b0JPKcSVCmFwQfkPYjr2-5">
          <mxGeometry width="50" height="50" relative="1" as="geometry">
            <mxPoint x="280" y="620" as="sourcePoint" />
            <mxPoint x="330" y="570" as="targetPoint" />
          </mxGeometry>
        </mxCell>
      </root>
    </mxGraphModel>
  </diagram>
</mxfile>
